<?xml version="1.0" encoding="utf-8"?>
<!-- Generator: Adobe Illustrator 25.2.0, SVG Export Plug-In . SVG Version: 6.00 Build 0)  -->
<svg version="1.1" id="Layer_1" xmlns="http://www.w3.org/2000/svg" xmlns:xlink="http://www.w3.org/1999/xlink" x="0px" y="0px"
	 viewBox="0 0 916 328" style="enable-background:new 0 0 916 328;" xml:space="preserve">
<style type="text/css">
	.st0{fill:#C3A06F;}
	.st1{fill:#E4C58D;}
	.st2{fill:#F2D49F;}
	.st3{fill:#3E3127;}
	.st4{fill:#5F5040;}
	.st5{fill:none;}
	.st6{fill:#00B2F6;}
	.st7{font-family:'Marguerite';}
	.st8{font-size:138.195px;}
	.st9{letter-spacing:3;}
</style>
<path d="M265.5,203.7v-53.4c0-18.5-10.4-30.6-28.5-30.6c-17.6,0-31.2,13.4-31.2,32.1v52h-8.6v-89.8h8.6v16.7
	c6-10.6,16-18.8,32.4-18.8c22.7,0,35.9,15.5,35.9,37v55H265.5z"/>
<path d="M306.4,203.7V75.2h8.6v128.6H306.4z"/>
<g>
	<path class="st0" d="M155.8,146.6c0.1-1.1,0-2.3-0.1-3.4c-0.7,2-1.6,4-2.6,5.9c-8.6,15.6-24.5,26.3-41.8,30.5
		c-4.3,1-8.9,1.7-13.3,1c-6.2-1-11.7-4.6-16.7-8.5c-9-7-17.1-15.6-21.2-26.3c-1.5-4-2.4-8.4-2.4-12.7c-1.7,6.9-1,14.5,1.5,21.1
		c4.1,10.6,12.2,19.2,21.2,26.3c5,3.9,10.4,7.5,16.7,8.5c4.4,0.7,8.9,0.1,13.3-1c17.3-4.1,33.2-14.9,41.8-30.5
		C154,154.1,155.5,150.4,155.8,146.6z"/>
	<g>
		<path class="st0" d="M76.7,106.1c-5.4,3-10.9,6.1-14.9,10.8c-7.7,8.9-8.4,22.4-4.3,33.4c4.2,11,12.6,19.9,21.9,27.1
			c5.1,4,10.8,7.8,17.2,8.8c4.5,0.7,9.2,0,13.7-1c17.8-4.3,34.3-15.4,43.2-31.5c1.9-3.5,3.5-7.3,3.8-11.2c0.4-6.1-2.2-12-5.6-17.1
			c-6.6-10-16.3-17.9-27.3-22.5c-4.9-2-10.1-3.4-15.2-4.8c-5.1-1.4-10.4-0.9-15.5,0.5C87.7,100.2,82.1,103.1,76.7,106.1z"/>
		<path class="st1" d="M79.2,107.1c-5.2,2.9-9.5,8.7-14.3,12.4c-8,6.2-8.4,19.7-4.3,30.4c4.1,10.6,12.2,19.2,21.2,26.3
			c5,3.9,10.4,7.5,16.7,8.5c4.4,0.7,8.9,0.1,13.3-1c17.3-4.1,31.2-11,39.7-26.6c1.9-3.4,2.4-11.9,2.7-15.8c0.4-5.9-0.4-10.7-4-15.4
			c-6.2-8-14.1-17.5-24.8-22c-4.7-2-9.8-3.3-14.7-4.6c-4.9-1.4-10.1-0.9-15,0.5C89.8,101.4,84.4,104.2,79.2,107.1z"/>
		<path class="st2" d="M122.4,173.2c1.6-1,3-2.5,4.3-3.9c4.4-4.9,8.9-9.8,13.3-14.7c1.4-1.5,2.8-3.2,3.2-5.3c0.7-4-2.5-7.3-3.7-11.1
			c-1.7-5.4,0.6-12.1-2.5-16.6c-1.2-1.8-3.1-2.9-5-3.9c-5.6-3.1-11.2-6.2-16.8-9.3c-3.6-2-7.4-4-11.4-4.3
			c-7.1-0.4-13.5,4.7-19.2,9.6c-6.9,5.9-14.3,12.7-16,22.2c-1.7,9.3-0.8,21.5,5.6,27.6c4.9,4.7,12,9.7,18.1,12.3
			c3,1.3,8.6-1.5,11.8-1.3c2.6,0.2,4.9-0.9,7.4-0.3C115.1,174.9,119,175.3,122.4,173.2z"/>
	</g>
	<path class="st3" d="M114.1,111.2c-0.1,0.2-0.2,0.3-0.3,0.5c-1,1.2-2,2.3-3,3.5c-0.3,0.3-0.6,0.7-1,0.7c-0.5,0.1-1.1-0.2-1.5-0.6
		c-0.8-0.7-1.5-1.5-2-2.4c-0.2-0.3-0.3-0.7-0.3-1c0-0.4,0.3-0.8,0.6-1.1c0.6-0.8,1.2-1.5,1.8-2.3c0.2-0.3,0.5-0.6,0.8-0.7
		c0.2-0.1,0.5-0.1,0.7,0c0.6,0,1.1-0.3,2.2,0.8C113.2,109.6,114.3,110.7,114.1,111.2z"/>
	<path class="st4" d="M114.2,110.6c-0.1,0.2-0.2,0.3-0.3,0.5c-1,1.2-2,2.3-3,3.5c-0.3,0.3-0.6,0.7-1,0.7c-0.5,0.1-1.1-0.2-1.5-0.6
		c-0.8-0.7-1.5-1.5-2-2.4c-0.2-0.3-0.3-0.7-0.3-1c0-0.4,0.3-0.8,0.6-1.1c0.6-0.8,1.2-1.5,1.8-2.3c0.2-0.3,0.5-0.6,0.8-0.7
		c0.2-0.1,0.5-0.1,0.7,0c0.6,0,1.1-0.3,2.2,0.8C113.2,109,114.3,110.1,114.2,110.6z"/>
	<path class="st3" d="M73.4,128.5c-0.2,0.2,0,0.7,0.3,0.8c0.3,0.2,0.6,0.2,0.9,0.3c0.5,0.3,0.7,1,0.9,1.6c0.8,1.5,2.8,1.8,4.5,1.9
		c0.7-1.8,1.1-3.7,1.2-5.5c-1-0.8-2.4,0.8-3.5,0.4c-0.6-0.3-0.9-1-1.4-1.5c-0.7-0.5-1.7-0.3-2.3,0.3c-0.6,0.6-0.7,1.5-0.6,2.3"/>
	<path class="st4" d="M73.3,127.8c-0.2,0.2,0,0.7,0.3,0.8c0.3,0.2,0.6,0.2,0.9,0.3c0.5,0.3,0.7,1,0.9,1.6c0.8,1.5,2.8,1.8,4.5,1.9
		c0.7-1.8,1.1-3.7,1.2-5.5c-1-0.8-2.4,0.8-3.5,0.4c-0.6-0.3-0.9-1-1.4-1.5c-0.7-0.5-1.7-0.3-2.3,0.3c-0.6,0.6-0.7,1.5-0.6,2.3"/>
	<path class="st3" d="M135.6,139.3c0,0.1-0.1,0.1-0.1,0.2c-0.1,0.4-0.3,0.9-0.7,0.8c-0.1,0-0.2-0.1-0.3-0.1c-0.7-0.5-1.5-1-2.2-1.5
		c-0.3-0.2-0.6-0.4-0.9-0.3c-0.6,0.1-0.9,1.1-1.6,1c-0.2,0-0.3-0.2-0.5-0.3c-0.5-0.5-0.9-0.9-1.4-1.4c0-0.5,0.8-0.7,0.9-1.2
		c0-0.2-0.1-0.5-0.2-0.7c-0.2-0.5,0-1,0.4-1.3s0.8-0.5,1.3-0.7c1-0.3,1.9-0.5,2.9-0.6c0.5,0,0.9,0,1.3,0.2c1,0.5,1,1.9,1.4,2.9
		C135,137.1,136.2,138.2,135.6,139.3z"/>
	<path class="st4" d="M135.2,138.5c0,0.1-0.1,0.1-0.1,0.2c-0.1,0.4-0.3,0.9-0.7,0.8c-0.1,0-0.2-0.1-0.3-0.1c-0.7-0.5-1.5-1-2.2-1.5
		c-0.3-0.2-0.6-0.4-0.9-0.3c-0.6,0.1-0.9,1.1-1.6,1c-0.2,0-0.3-0.2-0.5-0.3c-0.5-0.5-0.9-0.9-1.4-1.4c0-0.5,0.8-0.7,0.9-1.2
		c0-0.2-0.1-0.5-0.2-0.7c-0.2-0.5,0-1,0.4-1.3s0.8-0.5,1.3-0.7c1-0.3,1.9-0.5,2.9-0.6c0.5,0,0.9,0,1.3,0.2c1,0.5,1,1.9,1.4,2.9
		C134.7,136.3,135.8,137.4,135.2,138.5z"/>
	<path class="st3" d="M99.6,140.6c-0.6,0.5-0.6,1.4-0.8,2.1c-0.2,0.8-0.7,1.6-1.4,1.5c0.1,1.2,0.3,2.3,0.7,3.4
		c0.1,0.3,0.2,0.5,0.4,0.7c0.5,0.3,1.1,0,1.5-0.5s0.6-1.1,1.1-1.3c0.9-0.5,1.9,0.2,2.7,0.9c0,0,0.4-1.6,0.5-1.8
		c0.1-0.6,0-1.3-0.1-1.9c-0.1-0.5-0.3-1.1-0.6-1.6c-0.3-0.5-0.9-0.7-1.4-0.9C101.3,140.9,100.4,140.7,99.6,140.6z"/>
	<path class="st4" d="M99.4,139.9c-0.6,0.5-0.6,1.4-0.8,2.1c-0.2,0.8-0.7,1.6-1.4,1.5c0.1,1.2,0.3,2.3,0.7,3.4
		c0.1,0.3,0.2,0.5,0.4,0.7c0.5,0.3,1.1,0,1.5-0.5c0.3-0.5,0.6-1.1,1.1-1.3c0.9-0.5,1.9,0.2,2.7,0.9c0,0,0.4-1.6,0.5-1.8
		c0.1-0.6,0-1.3-0.1-1.9c-0.1-0.5-0.3-1.1-0.6-1.6c-0.3-0.5-0.9-0.7-1.4-0.9C101,140.2,100.2,140,99.4,139.9z"/>
	<path class="st3" d="M110.7,173.3c-0.2,0.8,0,1.8,0.8,2.3c0.5,0.3,1.2,0.3,1.6,0.8c0.3,0.3,0.4,0.7,0.7,0.9
		c0.5,0.4,1.2,0.4,1.7,0.2c1.2-0.4,2.2-1.3,3-2.2c0.1-0.1,0.2-0.2,0.2-0.4c0-0.3-0.2-0.5-0.4-0.6c-0.3-0.2-0.6-0.3-1-0.3
		c-0.1,0-0.2,0-0.3-0.1c-0.2-0.2,0-0.5-0.1-0.8c-0.1-0.3-0.5-0.5-0.8-0.4c-0.3,0.1-0.6,0.2-1,0.3c-0.3,0-0.5,0-0.8-0.1
		c-0.9-0.3-1.7-0.8-2.3-1.5c-0.2-0.2-0.2-0.3-0.4,0c-0.1,0.2-0.3,0.4-0.4,0.6C111.1,172.3,110.9,172.8,110.7,173.3z"/>
	<path class="st4" d="M110.8,172.8c-0.2,0.8,0,1.8,0.8,2.3c0.5,0.3,1.2,0.3,1.6,0.8c0.3,0.3,0.4,0.7,0.7,0.9
		c0.5,0.4,1.2,0.4,1.7,0.2c1.2-0.4,2.2-1.3,3-2.2c0.1-0.1,0.2-0.2,0.2-0.4c0-0.3-0.2-0.5-0.4-0.6c-0.3-0.2-0.6-0.3-1-0.3
		c-0.1,0-0.2,0-0.3-0.1c-0.2-0.2,0-0.5-0.1-0.8c-0.1-0.3-0.5-0.5-0.8-0.4c-0.3,0.1-0.6,0.2-1,0.3c-0.3,0-0.5,0-0.8-0.1
		c-0.9-0.3-1.7-0.8-2.3-1.5c-0.2-0.2-0.2-0.3-0.4,0c-0.1,0.2-0.3,0.4-0.4,0.6C111.1,171.9,110.9,172.3,110.8,172.8z"/>
	<path class="st4" d="M70,154.3c-0.1-0.1-0.3-0.1-0.4-0.2c-0.2-0.2-0.3-0.6-0.3-1c-0.1-1-0.2-2-0.3-2.9c0.9-0.3,1.8,0.4,2.5,1
		s1.6,1.4,2.4,1c-0.3,0.1-0.2,1.4-0.2,1.7c0,0.5,0.2,1.2-0.1,1.7c-0.3,0.6-1,0.1-1.4-0.2C71.5,155,70.8,154.6,70,154.3z"/>
	<path class="st3" d="M125.6,153.5c0.1-0.1,0.3-0.1,0.4-0.1c0.3,0,0.7,0.2,0.9,0.3c0.8,0.5,1.6,1.1,2.5,1.6
		c-0.3,0.9-1.4,1.2-2.3,1.3c-0.9,0.1-2,0.4-2.3,1.3c0.1-0.3-1-1-1.2-1.2c-0.4-0.3-1-0.6-1.2-1.1c-0.2-0.6,0.6-0.8,1-1
		C124.1,154.2,124.8,153.8,125.6,153.5z"/>
	<path class="st4" d="M125.4,153c0.1-0.1,0.3-0.1,0.4-0.2c0.3,0,0.7,0.2,0.9,0.3c0.8,0.5,1.6,1.1,2.5,1.6c-0.3,0.9-1.4,1.2-2.3,1.3
		c-0.9,0.1-2,0.4-2.3,1.3c0.1-0.3-1-1-1.2-1.2c-0.4-0.3-1-0.6-1.2-1.1c-0.2-0.6,0.6-0.8,1-1C123.9,153.7,124.7,153.4,125.4,153z"/>
	<path class="st3" d="M95.1,167.6c0,0.1-0.1,0.3-0.2,0.4c-0.8,0.9-1.6,1.8-2.3,2.8c-0.2,0.2-0.4,0.5-0.8,0.6
		c-0.4,0.1-0.8-0.2-1.2-0.4c-0.6-0.5-1.2-1.2-1.6-1.9c-0.1-0.2-0.3-0.5-0.3-0.8c0-0.3,0.2-0.6,0.4-0.9c0.5-0.6,0.9-1.2,1.4-1.8
		c0.2-0.2,0.4-0.4,0.6-0.5c0.2-0.1,0.4-0.1,0.6,0c0.5,0,0.9-0.2,1.7,0.6S95.3,167.2,95.1,167.6z"/>
	<path class="st4" d="M95.7,168.3c0,0.1-0.1,0.3-0.2,0.4c-0.8,0.9-1.6,1.8-2.3,2.8c-0.2,0.2-0.4,0.5-0.8,0.6
		c-0.4,0.1-0.8-0.2-1.2-0.4c-0.6-0.5-1.2-1.2-1.6-1.9c-0.1-0.2-0.3-0.5-0.3-0.8c0-0.3,0.2-0.6,0.4-0.9c0.5-0.6,0.9-1.2,1.4-1.8
		c0.2-0.2,0.4-0.4,0.6-0.5c0.2-0.1,0.4-0.1,0.6,0c0.5,0,0.9-0.2,1.7,0.6C94.9,167.1,95.8,167.9,95.7,168.3z"/>
</g>
<path d="M389.9,206.9c-7.9,18.8-17.1,25.5-29.9,25.5c-6.9,0-11.8-1.2-17.8-3.9l3-7.6c4.8,2.3,8.6,3.3,15.3,3.3
	c9.3,0,15.5-5.5,22.2-21.1l-43.2-89.3h10l37.3,80.3l32.4-80.3h9.5L389.9,206.9z"/>
<rect x="414.1" y="75.6" class="st5" width="541.9" height="276.4"/>
<text transform="matrix(1 0 0 1 414.0589 211.688)" class="st6 st7 st8 st9">Grans</text>
<path d="M105.8,205.9c-37.3,0-61.8-29.8-61.8-63.4v-0.4c0-33.6,24.8-63.8,62.2-63.8c37.3,0,61.8,29.8,61.8,63.4
	c0.2,0.2,0.2,0.2,0,0.4C167.9,175.7,143.1,205.9,105.8,205.9z M158.4,142.1c0-30.5-22.2-55.5-52.7-55.5s-52.3,24.7-52.3,55.1v0.4
	c0,30.5,22.2,55.5,52.7,55.5c30.5,0,52.3-24.7,52.3-55.1V142.1z"/>
</svg>
